<?xml version="1.0" encoding="utf-8"?><svg xml:space="preserve" viewBox="0 0 100 100" y="0" x="0" xmlns="http://www.w3.org/2000/svg" id="圖層_1" version="1.1" width="200px" height="200px" xmlns:xlink="http://www.w3.org/1999/xlink" style="width:100%;height:100%;background-size:initial;background-repeat-y:initial;background-repeat-x:initial;background-position-y:initial;background-position-x:initial;background-origin:initial;background-color:initial;background-clip:initial;background-attachment:initial;animation-play-state:paused" ><g class="ldl-scale" style="transform-origin:50% 50%;transform:rotate(0deg) scale(0.8, 0.8);animation-play-state:paused" ><g style="animation-play-state:paused" ><path fill="#333" d="M47.429 53.064c-3.016-2.207-5.906-4.565-8.75-6.977-2.852-2.402-5.629-4.894-8.392-7.404-2.738-2.538-5.46-5.096-8.107-7.743-2.655-2.637-5.264-5.329-7.745-8.174a2.024 2.024 0 0 1 2.571-3.064c3.232 1.949 6.336 4.052 9.395 6.208 3.066 2.147 6.058 4.384 9.033 6.64 2.951 2.285 5.887 4.587 8.748 6.979 2.869 2.382 5.693 4.818 8.39 7.406a4.01 4.01 0 0 1-5.143 6.129z" style="fill:rgb(255, 255, 255);animation-play-state:paused" ></path></g>
<path stroke-miterlimit="10" stroke-linejoin="round" stroke-linecap="round" stroke-width="6" stroke="#333" fill="none" d="M49.833 27.833V12.5c20.711 0 37.5 16.789 37.5 37.5s-16.789 37.5-37.5 37.5-37.5-16.789-37.5-37.5" style="stroke:rgb(255, 255, 255);animation-play-state:paused" ></path>
<metadata xmlns:d="https://loading.io/stock/" style="animation-play-state:paused" ><d:name style="animation-play-state:paused" >timer</d:name>
<d:tags style="animation-play-state:paused" >clock,camera,timed shutter,timer,camera</d:tags>
<d:license style="animation-play-state:paused" >by</d:license>
<d:slug style="animation-play-state:paused" >xqxmsg</d:slug></metadata></g><!-- generated by https://loading.io/ --></svg>